{
  "accessors": [
    {
      "bufferView": 2,
      "componentType": 5126,
      "count": 786,
      "max": [
        0.9620084166526794,
        3.740520715713501,
        1.70855712890625
      ],
      "min": [
        -1.2205896377563477,
        -4.819802761077881,
        -1.7085566520690918
      ],
      "type": "VEC3"
    },
    {
      "bufferView": 2,
      "byteOffset": 9432,
      "componentType": 5126,
      "count": 786,
      "max": [
        0.9999917149543762,
        0.9997428059577942,
        1.0
      ],
      "min": [
        -1.0,
        -0.9991042017936707,
        -1.0
      ],
      "type": "VEC3"
    },
    {
      "bufferView": 1,
      "componentType": 5126,
      "count": 786,
      "max": [
        0.9824190139770508,
        0.9854393601417542
      ],
      "min": [
        0.0205826535820961,
        0.0639411062002182
      ],
      "type": "VEC2"
    },
    {
      "bufferView": 0,
      "componentType": 5125,
      "count": 3696,
      "type": "SCALAR"
    },
    {
      "bufferView": 2,
      "byteOffset": 18864,
      "componentType": 5126,
      "count": 76,
      "max": [
        -0.415610134601593,
        -1.0652928352355957,
        1.850867509841919
      ],
      "min": [
        -0.6559600830078125,
        -1.4801435470581055,
        -1.8508670330047607
      ],
      "type": "VEC3"
    },
    {
      "bufferView": 2,
      "byteOffset": 19776,
      "componentType": 5126,
      "count": 76,
      "max": [
        0.7531202435493469,
        0.741202712059021,
        0.9705283641815186
      ],
      "min": [
        -0.7450266480445862,
        -0.9277513027191162,
        -0.9705283045768738
      ],
      "type": "VEC3"
    },
    {
      "bufferView": 1,
      "byteOffset": 6288,
      "componentType": 5126,
      "count": 76,
      "max": [
        0.967441737651825,
        0.3070375919342041
      ],
      "min": [
        0.6776346564292908,
        0.20076905190944672
      ],
      "type": "VEC2"
    },
    {
      "bufferView": 0,
      "byteOffset": 14784,
      "componentType": 5125,
      "count": 264,
      "type": "SCALAR"
    },
    {
      "bufferView": 2,
      "byteOffset": 20688,
      "componentType": 5126,
      "count": 190,
      "max": [
        0.9375015497207642,
        3.623584032058716,
        1.70855712890625
      ],
      "min": [
        -0.7713388800621033,
        1.0377631187438965,
        -1.7085566520690918
      ],
      "type": "VEC3"
    },
    {
      "bufferView": 2,
      "byteOffset": 22968,
      "componentType": 5126,
      "count": 190,
      "max": [
        0.9965570569038391,
        0.9740278720855713,
        0.9997709393501282
      ],
      "min": [
        -0.9992878437042236,
        -0.8836696147918701,
        -0.9997709393501282
      ],
      "type": "VEC3"
    },
    {
      "bufferView": 1,
      "byteOffset": 6896,
      "componentType": 5126,
      "count": 190,
      "max": [
        0.9786386489868164,
        0.2825965881347656
      ],
      "min": [
        0.4445713460445404,
        0.0717509388923645
      ],
      "type": "VEC2"
    },
    {
      "bufferView": 0,
      "byteOffset": 15840,
      "componentType": 5125,
      "count": 1044,
      "type": "SCALAR"
    },
    {
      "bufferView": 2,
      "byteOffset": 25248,
      "componentType": 5126,
      "count": 56,
      "max": [
        0.6004174947738647,
        0.6048275232315063,
        0.3085513114929199
      ],
      "min": [
        -0.6004175543785095,
        -0.5872519016265869,
        -0.30855119228363037
      ],
      "type": "VEC3"
    },
    {
      "bufferView": 2,
      "byteOffset": 25920,
      "componentType": 5126,
      "count": 56,
      "max": [
        0.7483946681022644,
        0.7538914084434509,
        1.0
      ],
      "min": [
        -0.7483946084976196,
        -0.7319846749305725,
        -1.0
      ],
      "type": "VEC3"
    },
    {
      "bufferView": 1,
      "byteOffset": 8416,
      "componentType": 5126,
      "count": 56,
      "max": [
        0.9863591194152832,
        0.7214566469192505
      ],
      "min": [
        0.6918123960494995,
        0.33213260769844055
      ],
      "type": "VEC2"
    },
    {
      "bufferView": 0,
      "byteOffset": 20016,
      "componentType": 5125,
      "count": 156,
      "type": "SCALAR"
    },
    {
      "bufferView": 2,
      "byteOffset": 26592,
      "componentType": 5126,
      "count": 56,
      "max": [
        0.6004174947738647,
        0.6048275232315063,
        0.30855119228363037
      ],
      "min": [
        -0.6004175543785095,
        -0.5872519016265869,
        -0.3085513114929199
      ],
      "type": "VEC3"
    },
    {
      "bufferView": 2,
      "byteOffset": 27264,
      "componentType": 5126,
      "count": 56,
      "max": [
        0.7483946681022644,
        0.7538914084434509,
        1.0
      ],
      "min": [
        -0.7483946084976196,
        -0.7319846749305725,
        -1.0
      ],
      "type": "VEC3"
    },
    {
      "bufferView": 1,
      "byteOffset": 8864,
      "componentType": 5126,
      "count": 56,
      "max": [
        0.9863591194152832,
        0.7214566469192505
      ],
      "min": [
        0.6918123960494995,
        0.33213260769844055
      ],
      "type": "VEC2"
    },
    {
      "bufferView": 0,
      "byteOffset": 20640,
      "componentType": 5125,
      "count": 156,
      "type": "SCALAR"
    },
    {
      "bufferView": 2,
      "byteOffset": 27936,
      "componentType": 5126,
      "count": 56,
      "max": [
        0.6004174947738647,
        0.6048275232315063,
        0.3085513114929199
      ],
      "min": [
        -0.6004175543785095,
        -0.5872519016265869,
        -0.30855119228363037
      ],
      "type": "VEC3"
    },
    {
      "bufferView": 2,
      "byteOffset": 28608,
      "componentType": 5126,
      "count": 56,
      "max": [
        0.7483946681022644,
        0.7538914084434509,
        1.0
      ],
      "min": [
        -0.7483946084976196,
        -0.7319846749305725,
        -1.0
      ],
      "type": "VEC3"
    },
    {
      "bufferView": 1,
      "byteOffset": 9312,
      "componentType": 5126,
      "count": 56,
      "max": [
        0.9863591194152832,
        0.7214566469192505
      ],
      "min": [
        0.6918123960494995,
        0.33213260769844055
      ],
      "type": "VEC2"
    },
    {
      "bufferView": 0,
      "byteOffset": 21264,
      "componentType": 5125,
      "count": 156,
      "type": "SCALAR"
    },
    {
      "bufferView": 2,
      "byteOffset": 29280,
      "componentType": 5126,
      "count": 56,
      "max": [
        0.6004174947738647,
        0.6048275232315063,
        0.30855119228363037
      ],
      "min": [
        -0.6004175543785095,
        -0.5872519016265869,
        -0.3085513114929199
      ],
      "type": "VEC3"
    },
    {
      "bufferView": 2,
      "byteOffset": 29952,
      "componentType": 5126,
      "count": 56,
      "max": [
        0.7483946681022644,
        0.7538914084434509,
        1.0
      ],
      "min": [
        -0.7483946084976196,
        -0.7319846749305725,
        -1.0
      ],
      "type": "VEC3"
    },
    {
      "bufferView": 1,
      "byteOffset": 9760,
      "componentType": 5126,
      "count": 56,
      "max": [
        0.9863591194152832,
        0.7214566469192505
      ],
      "min": [
        0.6918123960494995,
        0.33213260769844055
      ],
      "type": "VEC2"
    },
    {
      "bufferView": 0,
      "byteOffset": 21888,
      "componentType": 5125,
      "count": 156,
      "type": "SCALAR"
    }
  ],
  "asset": {
    "extras": {
      "author": "LolAndPop (https://sketchfab.com/LolAndPop)",
      "license": "CC-BY-4.0 (http://creativecommons.org/licenses/by/4.0/)",
      "source": "https://sketchfab.com/3d-models/ps1-low-poly-2024-ford-mustang-dark-horse-d15e5daca29a4b7384b5743f1ec53bd1",
      "title": "Ps1 Low-poly 2024 Ford Mustang Dark Horse"
    },
    "generator": "Sketchfab-15.55.0",
    "version": "2.0"
  },
  "bufferViews": [
    {
      "buffer": 0,
      "byteLength": 22512,
      "name": "floatBufferViews",
      "target": 34963
    },
    {
      "buffer": 0,
      "byteLength": 10208,
      "byteOffset": 22512,
      "byteStride": 8,
      "name": "floatBufferViews",
      "target": 34962
    },
    {
      "buffer": 0,
      "byteLength": 30624,
      "byteOffset": 32720,
      "byteStride": 12,
      "name": "floatBufferViews",
      "target": 34962
    }
  ],
  "buffers": [
    {
      "byteLength": 63344,
      "uri": "scene.bin"
    }
  ],
  "extensionsUsed": [
    "KHR_materials_unlit"
  ],
  "images": [
    {
      "uri": "textures/Body_baseColor.jpeg"
    }
  ],
  "materials": [
    {
      "doubleSided": true,
      "extensions": {
        "KHR_materials_unlit": {}
      },
      "name": "Body",
      "pbrMetallicRoughness": {
        "baseColorTexture": {
          "index": 0
        },
        "metallicFactor": 0.0
      }
    },
    {
      "doubleSided": true,
      "extensions": {
        "KHR_materials_unlit": {}
      },
      "name": "Mirrors",
      "pbrMetallicRoughness": {
        "baseColorTexture": {
          "index": 0
        },
        "metallicFactor": 0.0
      }
    },
    {
      "doubleSided": true,
      "extensions": {
        "KHR_materials_unlit": {}
      },
      "name": "Rear_Wing",
      "pbrMetallicRoughness": {
        "baseColorTexture": {
          "index": 0
        },
        "metallicFactor": 0.0
      }
    },
    {
      "doubleSided": true,
      "extensions": {
        "KHR_materials_unlit": {}
      },
      "name": "Wheels",
      "pbrMetallicRoughness": {
        "baseColorTexture": {
          "index": 0
        },
        "metallicFactor": 0.0
      }
    }
  ],
  "meshes": [
    {
      "name": "Body_Body_0",
      "primitives": [
        {
          "attributes": {
            "NORMAL": 1,
            "POSITION": 0,
            "TEXCOORD_0": 2
          },
          "indices": 3,
          "material": 0,
          "mode": 4
        }
      ]
    },
    {
      "name": "Body_Mirrors_0",
      "primitives": [
        {
          "attributes": {
            "NORMAL": 5,
            "POSITION": 4,
            "TEXCOORD_0": 6
          },
          "indices": 7,
          "material": 1,
          "mode": 4
        }
      ]
    },
    {
      "name": "Body_Rear Wing_0",
      "primitives": [
        {
          "attributes": {
            "NORMAL": 9,
            "POSITION": 8,
            "TEXCOORD_0": 10
          },
          "indices": 11,
          "material": 2,
          "mode": 4
        }
      ]
    },
    {
      "name": "Wheel1_Wheels_0",
      "primitives": [
        {
          "attributes": {
            "NORMAL": 13,
            "POSITION": 12,
            "TEXCOORD_0": 14
          },
          "indices": 15,
          "material": 3,
          "mode": 4
        }
      ]
    },
    {
      "name": "Wheel2_Wheels_0",
      "primitives": [
        {
          "attributes": {
            "NORMAL": 17,
            "POSITION": 16,
            "TEXCOORD_0": 18
          },
          "indices": 19,
          "material": 3,
          "mode": 4
        }
      ]
    },
    {
      "name": "Wheel3_Wheels_0",
      "primitives": [
        {
          "attributes": {
            "NORMAL": 21,
            "POSITION": 20,
            "TEXCOORD_0": 22
          },
          "indices": 23,
          "material": 3,
          "mode": 4
        }
      ]
    },
    {
      "name": "Wheel4_Wheels_0",
      "primitives": [
        {
          "attributes": {
            "NORMAL": 25,
            "POSITION": 24,
            "TEXCOORD_0": 26
          },
          "indices": 27,
          "material": 3,
          "mode": 4
        }
      ]
    }
  ],
  "nodes": [
    {
      "children": [
        1
      ],
      "matrix": [
        1.0,
        2.8327693431939995e-16,
        -2.8327693431939985e-16,
        0.0,
        2.832769343193999e-16,
        -2.2204460492503128e-16,
        1.0,
        0.0,
        2.832769343193999e-16,
        -1.0,
        -2.2204460492503136e-16,
        0.0,
        0.0,
        0.0,
        0.0,
        1.0
      ],
      "name": "Sketchfab_model"
    },
    {
      "children": [
        2
      ],
      "matrix": [
        0.009999999776482582,
        0.0,
        0.0,
        0.0,
        0.0,
        -0.009999999776482582,
        0.0,
        0.0,
        0.0,
        0.0,
        -0.009999999776482582,
        0.0,
        0.0,
        0.0,
        0.0,
        1.0
      ],
      "name": "Lowpoly Ps1 2024 Ford Mustang Dark Horse.fbx"
    },
    {
      "children": [
        3,
        7,
        9,
        11,
        13
      ],
      "name": "RootNode"
    },
    {
      "children": [
        4,
        5,
        6
      ],
      "matrix": [
        2.8837217405827516e-06,
        0.0,
        -38.19605255126942,
        0.0,
        0.0,
        38.19605255126953,
        0.0,
        0.0,
        38.19605255126942,
        0.0,
        2.8837217405827516e-06,
        0.0,
        -8.598869499110151e-06,
        21.460384368896484,
        46.382232666015625,
        1.0
      ],
      "name": "Body"
    },
    {
      "mesh": 0,
      "name": "Body_Body_0"
    },
    {
      "mesh": 1,
      "name": "Body_Mirrors_0"
    },
    {
      "mesh": 2,
      "name": "Body_Rear Wing_0"
    },
    {
      "children": [
        8
      ],
      "matrix": [
        2.8908517969653704e-06,
        0.0,
        -38.290493011474496,
        0.0,
        0.0,
        38.29049301147461,
        0.0,
        0.0,
        38.290493011474496,
        0.0,
        2.8908517969653704e-06,
        0.0,
        -51.59567642211914,
        -95.89481353759766,
        22.89211082458496,
        1.0
      ],
      "name": "Wheel1"
    },
    {
      "mesh": 3,
      "name": "Wheel1_Wheels_0"
    },
    {
      "children": [
        10
      ],
      "matrix": [
        2.8908517969653704e-06,
        0.0,
        -38.290493011474496,
        0.0,
        0.0,
        38.29049301147461,
        0.0,
        0.0,
        38.290493011474496,
        0.0,
        2.8908517969653704e-06,
        0.0,
        51.59567642211914,
        -95.89481353759766,
        22.89211654663086,
        1.0
      ],
      "name": "Wheel2"
    },
    {
      "mesh": 4,
      "name": "Wheel2_Wheels_0"
    },
    {
      "children": [
        12
      ],
      "matrix": [
        2.9793428901538457e-06,
        0.0,
        -39.46259307861317,
        0.0,
        0.0,
        39.46259307861328,
        0.0,
        0.0,
        39.46259307861317,
        0.0,
        2.9793428901538457e-06,
        0.0,
        -53.17505645751953,
        87.74021911621094,
        23.44607162475586,
        1.0
      ],
      "name": "Wheel3"
    },
    {
      "mesh": 5,
      "name": "Wheel3_Wheels_0"
    },
    {
      "children": [
        14
      ],
      "matrix": [
        2.9793428901538457e-06,
        0.0,
        -39.46259307861317,
        0.0,
        0.0,
        39.46259307861328,
        0.0,
        0.0,
        39.46259307861317,
        0.0,
        2.9793428901538457e-06,
        0.0,
        53.17505645751953,
        87.74021911621094,
        23.446077346801758,
        1.0
      ],
      "name": "Wheel4"
    },
    {
      "mesh": 6,
      "name": "Wheel4_Wheels_0"
    }
  ],
  "samplers": [
    {
      "magFilter": 9729,
      "minFilter": 9987,
      "wrapS": 10497,
      "wrapT": 10497
    }
  ],
  "scene": 0,
  "scenes": [
    {
      "name": "Sketchfab_Scene",
      "nodes": [
        0
      ]
    }
  ],
  "textures": [
    {
      "sampler": 0,
      "source": 0
    }
  ]
}
